<svg xmlns="http://www.w3.org/2000/svg" viewBox="0 0 81 73">
  <defs>
    <linearGradient id="a" x1="0%" y1="50%" y2="50%">
      <stop stop-color="#FC00FF" offset="0%"/>
      <stop stop-color="#00DBDE" offset="100%"/>
    </linearGradient>
  </defs>
  <path fill="url(#a)" fill-rule="evenodd" d="M31.97 73c-2.53 0-5.07-.16-7.63-.5-2.55-.32-5-.85-7.3-1.57-2.33-.73-4.5-1.68-6.52-2.85-2-1.17-3.76-2.63-5.23-4.36-1.5-1.74-2.7-3.77-3.5-6.12C.9 55.26.5 52.56.5 49.52c0-4.08.77-7.57 2.32-10.48 1.55-2.9 3.62-5.32 6.22-7.24 2.6-1.93 5.6-3.4 8.96-4.43 3.37-1.03 6.86-1.7 10.47-1.97v-4.85c0-1.83-.23-3.28-.7-4.36-.47-1.1-1.07-1.9-1.8-2.5-.7-.6-1.5-.9-2.38-1.1-.9-.2-1.7-.3-2.5-.3-1 0-2 .1-3 .4-1.1.23-2.1.6-3.1 1s-2 .8-2.8 1.3c-.9.43-1.7.9-2.3 1.23-.3.2-.5.37-.8.5-.27.15-.5.2-.7.2-.4 0-.8-.3-1.2-.9l-2.4-3.8c-.2-.3-.37-.7-.37-1.04 0-.36.17-.7.47-.97.3-.3.6-.5.9-.7 1.54-1.1 3.5-2.2 5.9-3.3 2.4-1.1 5.05-2.1 8.05-3 3-.9 6.2-1.66 9.7-2.2 3.44-.5 7-.8 10.74-.8 3.5 0 6.92.1 10.3.35 3.32.2 6.5.7 9.5 1.5 2.94.8 5.65 1.9 8.12 3.3 2.43 1.4 4.56 3.3 6.36 5.64 1.8 2.38 3.2 5.26 4.2 8.68 1 3.44 1.47 7.54 1.47 12.3v31.4c0 1.55-.1 2.93-.4 4.12-.26 1.2-.8 2.2-1.6 3-.8.8-1.9 1.37-3.3 1.77-1.4.4-3.23.6-5.5.6H31.9zm-3.45-38.67c-3.37 0-6.2.42-8.5 1.26-2.3.8-4.15 1.9-5.56 3.3-1.4 1.4-2.4 3-3.02 4.9-.6 1.8-.92 3.7-.92 5.7s.3 3.8.92 5.6c.6 1.7 1.62 3.3 3.02 4.6 1.4 1.3 3.26 2.3 5.56 3.1 2.3.7 5.13 1.1 8.5 1.1V34.3z"/>
</svg>